<?xml version="1.0" encoding="iso-8859-1"?>
<!-- Uploaded to: SVG Repo, www.svgrepo.com, Generator: SVG Repo Mixer Tools -->
<svg version="1.1" id="Layer_1" xmlns="http://www.w3.org/2000/svg" xmlns:xlink="http://www.w3.org/1999/xlink" 
	 viewBox="0 0 512 512" xml:space="preserve">
<path style="fill:#272F37;" d="M122.836,249.195l-48.489-44.149c-17.3-15.753-21.84-41.173-11.062-61.941l12.741-24.55
	c15.971-30.772,51.954-45.355,84.842-34.383l21.979,7.332c7.848,2.618,12.087,11.102,9.469,18.95l0,0
	c-4.436,13.296-14.75,23.809-27.959,28.497l0,0c-7.849,2.786-16.394,2.925-24.33,0.397l0,0c-16.309-5.195-33.989,2.11-41.874,17.303
	l0,0c-3.928,7.568-1.343,16.884,5.923,21.347l0,0c12.363,7.592,22.025,18.883,27.614,32.273l0,0
	c3.88,9.296,11.12,16.789,20.278,20.987l0,0c6.385,2.928,8.076,11.222,3.347,16.415l0,0
	C146.766,257.063,132.225,257.744,122.836,249.195z"/>
<path style="fill:#6A7379;" d="M218.675,133.699h-45.3c-10.598,0-19.598-7.76-21.159-18.243l-5.243-35.229l71.702,1.171V133.699z"/>
<path style="fill:#B7B9BC;" d="M373.935,319.826H211.012c-4.073,0-7.511,3.028-8.026,7.069l-21.395,168.239
	c-0.602,4.735,3.087,8.924,7.861,8.924h206.039c4.774,0,8.464-4.19,7.861-8.924L381.96,326.896
	C381.446,322.856,378.008,319.826,373.935,319.826z"/>
<polygon style="opacity:0.35;fill:#FFFFFF;enable-background:new    ;" points="322.003,319.826 262.944,319.826 255.135,504.059 
	329.813,504.059 "/>
<path style="fill:#B7B9BC;" d="M211.012,281.972h162.923c4.073,0,7.511-3.028,8.026-7.069L404.489,97.74H180.458l22.529,177.162
	C203.501,278.944,206.939,281.972,211.012,281.972z"/>
<polygon style="opacity:0.35;fill:#FFFFFF;enable-background:new    ;" points="262.944,281.972 322.003,281.972 329.813,97.74 
	255.135,97.74 "/>
<rect x="212.846" y="281.974" style="fill:#6A7379;" width="159.251" height="37.855"/>
<rect x="212.846" y="281.974" style="opacity:0.1;enable-background:new    ;" width="159.251" height="13.265"/>
<path style="fill:#B7B9BC;" d="M258.716,60.862h67.515c2.554,0,5.073,0.591,7.361,1.725l70.898,35.153H180.458l70.898-35.153
	C253.643,61.453,256.163,60.862,258.716,60.862z"/>
<path style="opacity:0.1;enable-background:new    ;" d="M258.716,60.862h67.515c2.554,0,5.073,0.591,7.361,1.725l70.898,35.153
	H180.458l70.898-35.153C253.643,61.453,256.163,60.862,258.716,60.862z"/>
<polygon style="fill:#6A7379;" points="279.927,60.862 305.02,60.862 329.813,97.739 255.135,97.739 "/>
<path style="fill:#272F37;" d="M315.71,7.941h-46.473c-3.75,0-6.63,3.322-6.098,7.035l6.578,45.886h45.513l6.578-45.886
	C322.34,11.263,319.46,7.941,315.71,7.941z"/>
<g>
	<path id="SVGCleanerId_0" style="fill:#B7B9BC;" d="M404.489,97.739h42.807c6.088,0,9.418,7.097,5.527,11.779l-58.835,70.799
		L404.489,97.739z"/>
</g>
<g>
	<path id="SVGCleanerId_0_1_" d="M404.489,97.739h42.807c6.088,0,9.418,7.097,5.527,11.779l-58.835,70.799L404.489,97.739z"/>
</g>
<g>
	<path id="SVGCleanerId_0_2_" d="M404.489,97.739h42.807c6.088,0,9.418,7.097,5.527,11.779l-58.835,70.799L404.489,97.739z"/>
</g>
<g>
	<path style="opacity:0.2;fill:#FFFFFF;enable-background:new    ;" d="M447.297,97.739h-31.629
		c4.732,11.624,13.799,21.013,25.197,26.17l11.959-14.39C456.715,104.836,453.385,97.739,447.297,97.739z"/>
	<path style="opacity:0.2;fill:#FFFFFF;enable-background:new    ;" d="M381.961,326.896c-0.513-4.04-3.951-7.069-8.025-7.069
		h-18.477c-3.577,6.798-5.611,14.536-5.611,22.751c0,24.057,17.359,44.045,40.23,48.161L381.961,326.896z"/>
	<path style="opacity:0.2;fill:#FFFFFF;enable-background:new    ;" d="M333.591,62.587c-2.288-1.134-4.807-1.725-7.361-1.725h-0.54
		c7.026,18.425,24.851,31.518,45.743,31.518c5.787,0,11.336-1.011,16.489-2.854L333.591,62.587z"/>
</g>
<path d="M389.838,275.905l11.737-92.292l57.355-69.02c3.789-4.559,4.579-10.725,2.061-16.092c-2.518-5.368-7.766-8.703-13.695-8.703
	h-40.945l-69.233-34.327c-3.367-1.669-7.131-2.551-10.887-2.551h-1.84l5.279-36.82c0.579-4.05-0.626-8.146-3.306-11.237
	C323.684,1.772,319.801,0,315.71,0h-46.473c-4.091,0-7.975,1.773-10.654,4.865s-3.884,7.188-3.303,11.238l5.279,36.818h-1.841
	c-3.757,0-7.522,0.882-10.888,2.551l-36.046,17.872l-64.679-1.057c-1.037-0.025-2.038,0.166-2.971,0.525
	c-31.301-2.255-60.616,14.072-75.154,42.083l-12.741,24.551c-12.419,23.929-7.17,53.318,12.765,71.471l48.489,44.149
	c5.919,5.388,13.374,8.047,20.81,8.046c8.409,0,16.791-3.4,22.885-10.092c3.979-4.371,5.584-10.198,4.403-15.991
	c-1.181-5.792-4.94-10.525-10.314-12.99c-7.364-3.375-13.138-9.352-16.259-16.829c-6.27-15.021-16.916-27.463-30.785-35.978
	c-3.699-2.272-5.03-7.071-3.031-10.922c6.121-11.795,19.754-17.433,32.416-13.394c9.529,3.034,19.97,2.866,29.398-0.481
	c3.496-1.241,6.844-2.85,10.011-4.794h1.01l17.074,134.265c0.744,5.851,4.618,10.636,9.799,12.783v24.424
	c-5.182,2.146-9.056,6.932-9.799,12.783l-21.395,168.239c-0.575,4.519,0.823,9.07,3.834,12.488c3.011,3.419,7.35,5.379,11.905,5.379
	h206.039c4.555,0,8.893-1.961,11.904-5.378c3.011-3.419,4.409-7.969,3.835-12.489l-21.395-168.239
	c-0.744-5.851-4.618-10.636-9.8-12.783v-24.423C385.22,286.542,389.094,281.756,389.838,275.905z M220.791,311.886v-21.973h143.365
	v21.973H220.791z M405.305,154.276l6.18-48.595h34.203L405.305,154.276z M271.291,15.882h42.366l-5.31,37.039h-31.746
	L271.291,15.882z M254.882,69.702c1.186-0.589,2.511-0.899,3.834-0.899h67.515c1.322,0,2.648,0.31,3.833,0.899l40.535,20.098
	H214.348L254.882,69.702z M180.767,88.722l-3.837,1.903l0.005,0.011c-0.914,0.453-1.747,1.075-2.436,1.857
	c-1.508,1.711-2.206,3.988-1.919,6.25l3.436,27.017h-2.642c-0.374,0-0.743-0.021-1.111-0.052l-0.029-0.036
	c-0.015,0.012-0.031,0.021-0.046,0.033c-6.099-0.547-11.204-5.271-12.119-11.416l-3.865-25.967L180.767,88.722z M142.437,131.783
	c-20.051-6.389-41.64,2.534-51.332,21.211c-5.817,11.207-1.944,25.164,8.815,31.772c11.011,6.762,19.462,16.64,24.441,28.565
	c4.664,11.171,13.292,20.101,24.295,25.146c0.978,0.449,1.279,1.275,1.371,1.727c0.092,0.453,0.139,1.33-0.584,2.125
	c-5.586,6.136-15.125,6.586-21.261,0.995l-48.489-44.149c-14.619-13.311-18.467-34.863-9.361-52.411l12.741-24.551
	c11.155-21.494,33.217-34.374,57.103-33.707l4.185,28.12c0.96,6.452,4.043,12.181,8.463,16.526
	C149.321,133.294,145.794,132.851,142.437,131.783z M189.473,105.681h206.001l-21.392,168.22c-0.01,0.074-0.072,0.13-0.147,0.13
	H211.012c-0.075,0-0.138-0.056-0.148-0.13L189.473,105.681z M395.494,496.118l-206.024,0.019l21.395-168.239
	c0.01-0.074,0.073-0.13,0.148-0.13h162.923c0.074,0,0.138,0.056,0.147,0.13L395.494,496.118z"/>
</svg>