<!DOCTYPE svg PUBLIC "-//W3C//DTD SVG 1.1//EN" "http://www.w3.org/Graphics/SVG/1.1/DTD/svg11.dtd">
<!-- Uploaded to: SVG Repo, www.svgrepo.com, Transformed by: SVG Repo Mixer Tools -->
<svg width="800px" height="800px" viewBox="-5.28 -5.28 34.56 34.56" fill="none" xmlns="http://www.w3.org/2000/svg">
<g id="SVGRepo_bgCarrier" stroke-width="0">
<path transform="translate(-5.28, -5.28), scale(2.16)" fill="#030712" d="M9.166.33a2.25 2.25 0 00-2.332 0l-5.25 3.182A2.25 2.25 0 00.5 5.436v5.128a2.25 2.25 0 001.084 1.924l5.25 3.182a2.25 2.25 0 002.332 0l5.25-3.182a2.25 2.25 0 001.084-1.924V5.436a2.25 2.25 0 00-1.084-1.924L9.166.33z" strokewidth="0"/>
</g>
<g id="SVGRepo_tracerCarrier" stroke-linecap="round" stroke-linejoin="round"/>
<g id="SVGRepo_iconCarrier"> <path d="M4.35 17C3.49422 15.597 3 13.9413 3 12.168C3 7.10468 7.02944 3 12 3C16.9706 3 21 7.10468 21 12.168C21 13.9413 20.5058 15.597 19.65 17" stroke="#ffffff" stroke-width="1.5"/> <path d="M5.63636 22H18.3636C20.3719 22 22 20.3719 22 18.3636C22 17.6105 21.3895 17 20.6364 17H16.8284C16.298 17 15.7893 17.2107 15.4142 17.5858L14.5858 18.4142C14.2107 18.7893 13.702 19 13.1716 19H10.8284C10.298 19 9.78929 18.7893 9.41421 18.4142L8.58579 17.5858C8.21071 17.2107 7.70201 17 7.17157 17H3.36364C2.61052 17 2 17.6105 2 18.3636C2 20.3719 3.62806 22 5.63636 22Z" stroke="#ffffff" stroke-width="1.5" stroke-linecap="round"/> </g>
</svg>