<!DOCTYPE svg PUBLIC "-//W3C//DTD SVG 1.1//EN" "http://www.w3.org/Graphics/SVG/1.1/DTD/svg11.dtd">
<!-- Uploaded to: SVG Repo, www.svgrepo.com, Transformed by: SVG Repo Mixer Tools -->
<svg width="800px" height="800px" viewBox="-8.64 -8.64 41.28 41.28" id="Layer_1" data-name="Layer 1" xmlns="http://www.w3.org/2000/svg" fill="#000000">
<g id="SVGRepo_bgCarrier" stroke-width="0">
<path transform="translate(-8.64, -8.64), scale(2.58)" fill="#030712" d="M9.166.33a2.25 2.25 0 00-2.332 0l-5.25 3.182A2.25 2.25 0 00.5 5.436v5.128a2.25 2.25 0 001.084 1.924l5.25 3.182a2.25 2.25 0 002.332 0l5.25-3.182a2.25 2.25 0 001.084-1.924V5.436a2.25 2.25 0 00-1.084-1.924L9.166.33z" strokewidth="0"/>
</g>
<g id="SVGRepo_tracerCarrier" stroke-linecap="round" stroke-linejoin="round"/>
<g id="SVGRepo_iconCarrier">
<defs>
<style>.cls-1{fill:none;stroke:#ffffff;stroke-miterlimit:10;stroke-width:1.91px;}</style>
</defs>
<rect class="cls-1" x="1.5" y="9.14" width="21" height="13.36" rx="1.91"/>
<circle class="cls-1" cx="6.27" cy="16.77" r="0.95"/>
<line class="cls-1" x1="6.27" y1="16.77" x2="6.27" y2="12"/>
<circle class="cls-1" cx="17.73" cy="16.77" r="0.95"/>
<line class="cls-1" x1="17.73" y1="16.77" x2="17.73" y2="12"/>
<line class="cls-1" x1="9.14" y1="19.64" x2="11.05" y2="19.64"/>
<line class="cls-1" x1="12.95" y1="19.64" x2="14.86" y2="19.64"/>
<polygon class="cls-1" points="13.91 12.96 10.09 12.96 9.14 9.14 14.86 9.14 13.91 12.96"/>
<line class="cls-1" x1="12" y1="7.23" x2="12" y2="9.14"/>
<path class="cls-1" d="M9.3,6.22a3.82,3.82,0,0,1,5.4,0"/>
<path class="cls-1" d="M6.75,3.67a7.44,7.44,0,0,1,10.5,0"/>
</g>
</svg>